#tb 0: 1/25
0,          0,          0,        1,   599040, 0xcb2969c5
0,          2,          2,        1,   599040, 0xd9825d1f
0,          3,          3,        1,   599040, 0x5ff4245a
0,          4,          4,        1,   599040, 0xd34e7bcb
0,          5,          5,        1,   599040, 0x032e1b8b
0,          6,          6,        1,   599040, 0x5ba1873c
0,          7,          7,        1,   599040, 0xa0b725ad
0,          8,          8,        1,   599040, 0x9cade6a6
0,          9,          9,        1,   599040, 0xe41bee5a
0,         10,         10,        1,   599040, 0x9de4340f
0,         11,         11,        1,   599040, 0xb966282a
0,         12,         12,        1,   599040, 0x52fd5300
0,         13,         13,        1,   599040, 0x8e6d6753
0,         14,         14,        1,   599040, 0x2011759b
0,         15,         15,        1,   599040, 0x5da5b7af
0,         16,         16,        1,   599040, 0x090e298c
0,         17,         17,        1,   599040, 0xfd618263
0,         18,         18,        1,   599040, 0xdaf4ef69
0,         19,         19,        1,   599040, 0x0349d1a0
0,         20,         20,        1,   599040, 0x75a35caf
0,         21,         21,        1,   599040, 0x4544918e
0,         22,         22,        1,   599040, 0xbca15836
0,         23,         23,        1,   599040, 0x443bc611
0,         24,         24,        1,   599040, 0xc380beaf
0,         25,         25,        1,   599040, 0x01a581ca
0,         26,         26,        1,   599040, 0x1690835f
0,         27,         27,        1,   599040, 0x871e9c3b
0,         28,         28,        1,   599040, 0xf4c20a25
0,         29,         29,        1,   599040, 0x86d8f2df
0,         30,         30,        1,   599040, 0x7690bd56
